<svg id="_0280_smiley_face" xmlns="http://www.w3.org/2000/svg" viewBox="0 0 500 500" data-imageid="smiley-face-20-a09a5" imageName="Smiley Face" class="illustrations_image" style="width: 188px;"><defs><style>.cls-1_smiley-face-20-a09a5{opacity:.45;}.cls-1_smiley-face-20-a09a5,.cls-2_smiley-face-20-a09a5,.cls-3_smiley-face-20-a09a5,.cls-4_smiley-face-20-a09a5,.cls-5_smiley-face-20-a09a5,.cls-6_smiley-face-20-a09a5{fill:none;}.cls-7_smiley-face-20-a09a5{fill:#fff;}.cls-2_smiley-face-20-a09a5{opacity:.58;}.cls-3_smiley-face-20-a09a5{opacity:.44;}.cls-8_smiley-face-20-a09a5{fill:#e6e6e6;}.cls-4_smiley-face-20-a09a5{opacity:.09;}.cls-5_smiley-face-20-a09a5{opacity:.73;}.cls-6_smiley-face-20-a09a5{opacity:.36;}.cls-9_smiley-face-20-a09a5{fill:#24285b;}.cls-10_smiley-face-20-a09a5{fill:#000001;}.cls-11_smiley-face-20-a09a5{fill:#ffd200;}.cls-12_smiley-face-20-a09a5{fill:#68e1fd;}</style></defs><g id="sd_smiley-face-20-a09a5" class="cls-1_smiley-face-20-a09a5"><ellipse class="cls-8_smiley-face-20-a09a5" cx="255.16" cy="435.61" rx="212.89" ry="27.18"/></g><g id="smiley_smiley-face-20-a09a5"><path class="cls-9_smiley-face-20-a09a5" d="m58.19,338.46c-.37,0-.75-.02-1.13-.07-4.84-.62-8.26-5.04-7.64-9.88,10.82-84.5,67.25-148.82,69.65-151.52,3.24-3.65,8.83-3.98,12.47-.73,3.65,3.24,3.98,8.82.74,12.47h0c-.55.62-55.23,63.08-65.33,142.03-.57,4.46-4.37,7.71-8.75,7.71Z"/><path class="cls-9_smiley-face-20-a09a5" d="m387.93,280.78c-.75,0-1.51-.02-2.28-.07-47.97-2.87-72.07-82.99-73.07-86.4-1.38-4.68,1.3-9.59,5.98-10.97,4.67-1.37,9.59,1.3,10.96,5.98h0c5.88,19.91,27.61,71.98,57.17,73.75,28.01,1.6,44.14-61.77,47.6-84.13.74-4.82,5.26-8.13,10.08-7.38,4.82.74,8.13,5.26,7.38,10.08-1.59,10.28-16.69,99.14-63.83,99.14Z"/><path class="cls-11_smiley-face-20-a09a5" d="m75.03,335.65s26.58,9.17,20.17,23.32c-6.4,14.15-18.15,10.95-18.15,10.95,0,0,2.94,31.58-23.3,25.21s-31-42.98-17.99-60.96c13.01-17.98,39.27,1.48,39.27,1.48Z"/><path class="cls-9_smiley-face-20-a09a5" d="m294.8,401.86c-.81,0-1.63-.11-2.44-.35-4.69-1.35-7.4-6.24-6.05-10.93,12.94-45.08-2.78-110.85-2.94-111.51-1.15-4.74,1.76-9.52,6.5-10.67,4.74-1.16,9.52,1.76,10.67,6.5.7,2.88,16.97,71.02,2.75,120.56-1.11,3.88-4.65,6.4-8.49,6.4Z"/><polygon class="cls-11_smiley-face-20-a09a5" points="321.96 345.17 275.27 345.17 275.27 434.25 364.28 434.25 316.9 405.19 321.96 345.17"/><path class="cls-9_smiley-face-20-a09a5" d="m182.78,401.86c-3.84,0-7.37-2.52-8.49-6.4-14.22-49.53,2.05-117.68,2.75-120.56,1.15-4.74,5.93-7.65,10.67-6.5,4.74,1.15,7.65,5.93,6.5,10.67-.16.66-15.86,66.51-2.94,111.51,1.35,4.69-1.36,9.58-6.05,10.93-.81.23-1.64.35-2.44.35Z"/><circle class="cls-12_smiley-face-20-a09a5 targetColor" cx="240.35" cy="174.61" r="137.4" style="fill: rgb(146, 186, 195);"/><g class="cls-4_smiley-face-20-a09a5"><path class="cls-10_smiley-face-20-a09a5" d="m343.27,83.9c9.97,19.03,15.64,40.67,15.64,63.65,0,75.88-61.52,137.4-137.4,137.4-41.11,0-77.97-18.08-103.15-46.69,22.96,43.83,68.85,73.75,121.76,73.75,75.88,0,137.4-61.51,137.4-137.4,0-34.77-12.94-66.51-34.25-90.71Z"/></g><ellipse class="cls-9_smiley-face-20-a09a5" cx="199.44" cy="141.89" rx="13.25" ry="29.24"/><ellipse class="cls-9_smiley-face-20-a09a5" cx="280.4" cy="141.89" rx="13.25" ry="29.24"/><path class="cls-9_smiley-face-20-a09a5" d="m239.06,262.65c-60.88,0-65.72-55.56-65.76-56.13-.13-1.82,1.23-3.41,3.06-3.55,1.85-.14,3.41,1.23,3.55,3.05.16,2.12,4.64,51.64,61.98,49.96,57.35-1.68,59.84-47.87,59.92-49.84.07-1.83,1.62-3.26,3.44-3.18,1.82.07,3.25,1.6,3.19,3.42-.02.54-2.67,54.35-66.35,56.21-1.02.03-2.03.05-3.02.05Z"/><g class="cls-6_smiley-face-20-a09a5"><ellipse class="cls-7_smiley-face-20-a09a5" cx="168.96" cy="181.65" rx="19.88" ry="10.52"/></g><g class="cls-6_smiley-face-20-a09a5"><ellipse class="cls-7_smiley-face-20-a09a5" cx="313.53" cy="181.65" rx="19.88" ry="10.52"/></g><polygon class="cls-11_smiley-face-20-a09a5" points="155.63 345.17 202.32 345.17 202.32 434.25 113.3 434.25 160.68 405.19 155.63 345.17"/><path class="cls-11_smiley-face-20-a09a5" d="m39.97,304.26s63.85-4.06,55.32,19.79c-8.53,23.84-39.03,11.59-57.39,10.39s-21.95-25.99,2.07-30.18Z"/><g class="cls-3_smiley-face-20-a09a5"><path class="cls-7_smiley-face-20-a09a5" d="m39.97,304.26s63.85-4.06,55.32,19.79c-8.53,23.84-39.03,11.59-57.39,10.39s-21.95-25.99,2.07-30.18Z"/></g><path class="cls-11_smiley-face-20-a09a5" d="m426.25,175.48s-24.24-14.24-15.17-26.85,19.96-7.15,19.96-7.15c0,0,3.36-31.54,27.82-20.11,24.46,11.43,21.9,48.26,5.58,63.31-16.31,15.05-38.2-9.21-38.2-9.21Z"/><path class="cls-11_smiley-face-20-a09a5" d="m454.42,213.18s-63.39-8.64-50.31-30.33c13.07-21.69,40.55-3.65,58.31,1.16,17.76,4.8,16.38,29.81-8,29.17Z"/><g class="cls-3_smiley-face-20-a09a5"><path class="cls-7_smiley-face-20-a09a5" d="m454.42,213.18s-63.39-8.64-50.31-30.33c13.07-21.69,40.55-3.65,58.31,1.16,17.76,4.8,16.38,29.81-8,29.17Z"/></g></g><g id="plant_smiley-face-20-a09a5"><g class="cls-2_smiley-face-20-a09a5"><path class="cls-12_smiley-face-20-a09a5 targetColor" d="m414.43,406.21s-21.3-5.82-25.93-25.64c0,0,33-6.67,33.94,27.39l-8.01-1.75Z" style="fill: rgb(146, 186, 195);"/></g><g class="cls-5_smiley-face-20-a09a5"><path class="cls-12_smiley-face-20-a09a5 targetColor" d="m417.04,404.09s-14.88-23.52-1.78-45.52c0,0,25.09,15.93,13.94,45.57l-12.16-.05Z" style="fill: rgb(146, 186, 195);"/></g><path class="cls-12_smiley-face-20-a09a5 targetColor" d="m420.88,404.11s7.86-24.84,31.63-29.55c0,0,4.46,16.13-15.39,29.62l-16.24-.07Z" style="fill: rgb(146, 186, 195);"/><polygon class="cls-9_smiley-face-20-a09a5" points="405.43 403.55 409.75 433.09 436.94 433.2 440.95 403.7 405.43 403.55"/></g></svg>